# Blender v2.83.1 OBJ File: ''
# www.blender.org
mtllib waltz.mtl
o Cylinder
v -0.000000 -4.000000 -2.000000
v -0.000000 4.000000 -2.000000
v 0.390181 -4.000000 -1.961570
v 0.390181 4.000000 -1.961570
v 0.765367 -4.000000 -1.847759
v 0.765367 4.000000 -1.847759
v 1.111140 -4.000000 -1.662939
v 1.111140 4.000000 -1.662939
v 1.414213 -4.000000 -1.414213
v 1.414213 4.000000 -1.414213
v 1.662939 -4.000000 -1.111140
v 1.662939 4.000000 -1.111140
v 1.847759 -4.000000 -0.765366
v 1.847759 4.000000 -0.765366
v 1.961570 -4.000000 -0.390180
v 1.961570 4.000000 -0.390180
v 2.000000 -4.000000 0.000000
v 2.000000 4.000000 0.000000
v 1.961571 -4.000000 0.390181
v 1.961571 4.000000 0.390181
v 1.847759 -4.000000 0.765367
v 1.847759 4.000000 0.765367
v 1.662939 -4.000000 1.111141
v 1.662939 4.000000 1.111141
v 1.414213 -4.000000 1.414214
v 1.414213 4.000000 1.414214
v 1.111140 -4.000000 1.662940
v 1.111140 4.000000 1.662940
v 0.765366 -4.000000 1.847759
v 0.765366 4.000000 1.847759
v 0.390180 -4.000000 1.961571
v 0.390180 4.000000 1.961571
v -0.000001 -4.000000 2.000000
v -0.000001 4.000000 2.000000
v -0.390182 -4.000000 1.961571
v -0.390182 4.000000 1.961571
v -0.765368 -4.000000 1.847759
v -0.765368 4.000000 1.847759
v -1.111142 -4.000000 1.662939
v -1.111142 4.000000 1.662939
v -1.414215 -4.000000 1.414213
v -1.414215 4.000000 1.414213
v -1.662940 -4.000000 1.111140
v -1.662940 4.000000 1.111140
v -1.847760 -4.000000 0.765366
v -1.847760 4.000000 0.765366
v -1.961571 -4.000000 0.390179
v -1.961571 4.000000 0.390179
v -2.000000 -4.000000 -0.000002
v -2.000000 4.000000 -0.000002
v -1.961570 -4.000000 -0.390182
v -1.961570 4.000000 -0.390182
v -1.847758 -4.000000 -0.765369
v -1.847758 4.000000 -0.765369
v -1.662938 -4.000000 -1.111142
v -1.662938 4.000000 -1.111142
v -1.414212 -4.000000 -1.414215
v -1.414212 4.000000 -1.414215
v -1.111138 -4.000000 -1.662941
v -1.111138 4.000000 -1.662941
v -0.765364 -4.000000 -1.847760
v -0.765364 4.000000 -1.847760
v -0.390178 -4.000000 -1.961571
v -0.390178 4.000000 -1.961571
vt 0.000057 0.749971
vt 0.999985 0.749971
vt 0.999986 0.781217
vt 0.000057 0.781218
vt 0.999986 0.812464
vt 0.000057 0.812464
vt 0.999986 0.843710
vt 0.000057 0.843711
vt 0.999986 0.874956
vt 0.000057 0.874958
vt 0.999986 0.906203
vt 0.000057 0.906204
vt 0.999986 0.937449
vt 0.000057 0.937451
vt 0.999986 0.968696
vt 0.000057 0.968697
vt 0.999986 0.999942
vt 0.000057 0.999944
vt 0.000058 0.000056
vt 0.999986 0.000059
vt 0.999986 0.031305
vt 0.000058 0.031303
vt 0.999986 0.062551
vt 0.000058 0.062549
vt 0.999986 0.093798
vt 0.000058 0.093796
vt 0.999986 0.125044
vt 0.000058 0.125042
vt 0.999986 0.156290
vt 0.000057 0.156289
vt 0.999986 0.187537
vt 0.000057 0.187535
vt 0.999986 0.218783
vt 0.000057 0.218782
vt 0.999985 0.250029
vt 0.000057 0.250028
vt 0.999985 0.281276
vt 0.000057 0.281275
vt 0.999985 0.312522
vt 0.000057 0.312521
vt 0.999985 0.343768
vt 0.000057 0.343767
vt 0.999985 0.375015
vt 0.000057 0.375014
vt 0.999985 0.406261
vt 0.000057 0.406260
vt 0.999985 0.437507
vt 0.000057 0.437507
vt 0.999985 0.468754
vt 0.000057 0.468753
vt 0.999985 0.500000
vt 0.000056 0.500000
vt 0.999985 0.531246
vt 0.000056 0.531246
vt 0.999985 0.562493
vt 0.000056 0.562493
vt 0.999985 0.593739
vt 0.000056 0.593739
vt 0.999985 0.624986
vt 0.000056 0.624986
vt 0.999985 0.656232
vt 0.000056 0.656232
vt 0.999985 0.687478
vt 0.000057 0.687479
vt 0.999985 0.718725
vt 0.000057 0.718725
vn 0.0980 0.0000 -0.9952
vn 0.2903 0.0000 -0.9569
vn 0.4714 0.0000 -0.8819
vn 0.6344 0.0000 -0.7730
vn 0.7730 0.0000 -0.6344
vn 0.8819 0.0000 -0.4714
vn 0.9569 0.0000 -0.2903
vn 0.9952 0.0000 -0.0980
vn 0.9952 0.0000 0.0980
vn 0.9569 0.0000 0.2903
vn 0.8819 0.0000 0.4714
vn 0.7730 0.0000 0.6344
vn 0.6344 0.0000 0.7730
vn 0.4714 0.0000 0.8819
vn 0.2903 0.0000 0.9569
vn 0.0980 0.0000 0.9952
vn -0.0980 0.0000 0.9952
vn -0.2903 0.0000 0.9569
vn -0.4714 0.0000 0.8819
vn -0.6344 0.0000 0.7730
vn -0.7730 0.0000 0.6344
vn -0.8819 0.0000 0.4714
vn -0.9569 0.0000 0.2903
vn -0.9952 0.0000 0.0980
vn -0.9952 0.0000 -0.0980
vn -0.9569 0.0000 -0.2903
vn -0.8819 0.0000 -0.4714
vn -0.7730 0.0000 -0.6344
vn -0.6344 0.0000 -0.7730
vn -0.4714 0.0000 -0.8819
vn -0.2903 0.0000 -0.9569
vn -0.0980 0.0000 -0.9952
usemtl None
s off
f 1/1/1 2/2/1 4/3/1 3/4/1
f 3/4/2 4/3/2 6/5/2 5/6/2
f 5/6/3 6/5/3 8/7/3 7/8/3
f 7/8/4 8/7/4 10/9/4 9/10/4
f 9/10/5 10/9/5 12/11/5 11/12/5
f 11/12/6 12/11/6 14/13/6 13/14/6
f 13/14/7 14/13/7 16/15/7 15/16/7
f 15/16/8 16/15/8 18/17/8 17/18/8
f 17/19/9 18/20/9 20/21/9 19/22/9
f 19/22/10 20/21/10 22/23/10 21/24/10
f 21/24/11 22/23/11 24/25/11 23/26/11
f 23/26/12 24/25/12 26/27/12 25/28/12
f 25/28/13 26/27/13 28/29/13 27/30/13
f 27/30/14 28/29/14 30/31/14 29/32/14
f 29/32/15 30/31/15 32/33/15 31/34/15
f 31/34/16 32/33/16 34/35/16 33/36/16
f 33/36/17 34/35/17 36/37/17 35/38/17
f 35/38/18 36/37/18 38/39/18 37/40/18
f 37/40/19 38/39/19 40/41/19 39/42/19
f 39/42/20 40/41/20 42/43/20 41/44/20
f 41/44/21 42/43/21 44/45/21 43/46/21
f 43/46/22 44/45/22 46/47/22 45/48/22
f 45/48/23 46/47/23 48/49/23 47/50/23
f 47/50/24 48/49/24 50/51/24 49/52/24
f 49/52/25 50/51/25 52/53/25 51/54/25
f 51/54/26 52/53/26 54/55/26 53/56/26
f 53/56/27 54/55/27 56/57/27 55/58/27
f 55/58/28 56/57/28 58/59/28 57/60/28
f 57/60/29 58/59/29 60/61/29 59/62/29
f 59/62/30 60/61/30 62/63/30 61/64/30
f 61/64/31 62/63/31 64/65/31 63/66/31
f 63/66/32 64/65/32 2/2/32 1/1/32
